Coordinates
version=1
nRows=4
nColumns=63
inDegrees=yes

Units are S.I. units (second, meters, Newtons, ...)
If the header above contains a line with 'inDegrees', this indicates whether rotational values are in degrees (yes) or radians (no).

endheader
time	pelvis_tilt	pelvis_list	pelvis_rotation	pelvis_tx	pelvis_ty	pelvis_tz	hip_flexion_r	hip_adduction_r	hip_rotation_r	knee_angle_r	knee_angle_r_beta	ankle_angle_r	subtalar_angle_r	mtp_angle_r	hip_flexion_l	hip_adduction_l	hip_rotation_l	knee_angle_l	knee_angle_l_beta	ankle_angle_l	subtalar_angle_l	mtp_angle_l	L5_S1_Flex_Ext	L5_S1_Lat_Bending	L5_S1_axial_rotation	L4_L5_Flex_Ext	L4_L5_Lat_Bending	L4_L5_axial_rotation	L3_L4_Flex_Ext	L3_L4_Lat_Bending	L3_L4_axial_rotation	L2_L3_Flex_Ext	L2_L3_Lat_Bending	L2_L3_axial_rotation	L1_L2_Flex_Ext	L1_L2_Lat_Bending	L1_L2_axial_rotation	L1_T12_Flex_Ext	L1_T12_Lat_Bending	L1_T12_axial_rotation	Abs_r3	Abs_r2	Abs_r1	Abs_t1	Abs_t2	neck_flexion	neck_bending	neck_rotation	arm_flex_r	arm_add_r	arm_rot_r	elbow_flex_r	pro_sup_r	wrist_flex_r	wrist_dev_r	arm_flex_l	arm_add_l	arm_rot_l	elbow_flex_l	pro_sup_l	wrist_flex_l	wrist_dev_l
      4.02500000	    -53.83829915	      1.06788798	     -1.15163464	     -0.36422074	      0.98650162	      0.03272834	    107.32676525	     -4.56960433	      1.51842648	     99.70957130	      1.74026031	     -7.23027397	    -12.26200663	      0.00000000	    109.74360279	     -6.70197349	     -1.92864850	     59.83973170	      1.04440034	     -7.06667814	     -3.49528309	      0.00000000	     -0.09717712	     -0.14993637	      0.34837906	     -0.18046764	     -0.19941537	      0.37015275	     -0.15965230	     -0.36455528	      0.37015275	     -0.11106373	     -0.36455528	      0.30483167	     -0.09023868	     -0.30575024	      0.28305798	     -0.05552701	     -0.23225143	      0.26128429	     -0.69412647	     -1.69611017	      1.93757979	      0.00000000	      0.00000000	     -0.00000000	      0.00000000	      0.00000000	     68.95689729	     -7.69954493	     -2.66577387	     43.52054772	     46.25944214	      0.00000000	      5.00000057	     71.57358849	     -6.92037718	      1.62692678	     39.69906860	     50.37392788	      0.00000000	      5.00000057
      4.03300000	    -53.77551997	      0.69374613	     -1.52438119	     -0.36400495	      0.98619733	      0.03261079	    108.23598132	     -4.51249411	      1.06384117	    101.33926769	      1.76870388	     -6.91571457	    -12.32984038	      0.00000000	    108.41450389	     -6.86565087	     -1.68195200	     58.02405409	      1.01271079	     -7.30443292	     -3.56388897	      0.00000000	     -0.09666145	     -0.08154201	      0.42471164	     -0.17950998	     -0.10845087	      0.45125612	     -0.15880510	     -0.19826124	      0.45125612	     -0.11047437	     -0.19826124	      0.37162268	     -0.08975982	     -0.16628047	      0.34507821	     -0.05523235	     -0.12630857	      0.31853373	     -0.69044307	     -0.92241953	      2.36211872	      0.00000000	      0.00000000	     -0.00000000	      0.00000000	      0.00000000	     69.11764617	     -7.83648520	     -2.44173651	     43.45933034	     46.29447558	      0.00000000	      5.00000056	     71.36972350	     -6.83877355	      1.47653056	     39.70206997	     50.36721230	      0.00000000	      5.00000056
      4.04200000	    -53.70367916	     -0.06991958	     -1.47959508	     -0.36370006	      0.98583072	      0.03145884	    109.07022825	     -5.05184214	      0.36713242	    103.03523657	      1.79830412	     -6.00496821	    -12.08090026	      0.00000000	    107.15922267	     -6.48388319	     -1.10552267	     56.24702277	      0.98169574	     -7.94236444	     -4.02023289	      0.00000000	     -0.09649851	      0.04323548	      0.41047376	     -0.17920739	      0.05750318	      0.43612837	     -0.15853741	      0.10512274	      0.43612837	     -0.11028815	      0.10512274	      0.35916454	     -0.08960852	      0.08816578	      0.33350993	     -0.05513925	      0.06697175	      0.30785532	     -0.68927924	      0.48908836	      2.28293191	      0.00000000	      0.00000000	     -0.00000000	      0.00000000	      0.00000000	     69.50527471	     -8.24768698	     -1.05892110	     43.17088612	     46.51453962	      0.00000000	      5.00000053	     70.94301001	     -6.56866895	      0.42886755	     39.84296478	     50.30518099	      0.00000000	      5.00000053
      4.05000000	    -53.62739416	     -0.44787189	     -1.58658016	     -0.36337981	      0.98542594	      0.03099060	    110.01990700	     -5.34140674	     -0.04923537	    104.63966975	      1.82630677	     -5.21859648	    -12.17715464	      0.00000000	    105.83832706	     -6.44612932	     -0.89059464	     54.57786078	      0.95256337	     -8.18136056	     -3.99711279	      0.00000000	     -0.09577532	      0.11090718	      0.43020531	     -0.17786435	      0.14750655	      0.45709315	     -0.15734928	      0.26965972	      0.45709315	     -0.10946162	      0.26965972	      0.37642965	     -0.08893697	      0.22616192	      0.34954182	     -0.05472602	      0.17179522	      0.32265399	     -0.68411356	      1.25460422	      2.39267290	      0.00000000	      0.00000000	     -0.00000000	      0.00000000	      0.00000000	     69.66230665	     -8.36373845	     -0.72877061	     43.05523990	     46.57772604	      0.00000000	      5.00000052	     70.74558938	     -6.52270011	      0.19748727	     39.78888535	     50.30257987	      0.00000000	      5.00000052
